inDegrees=no
num_controls=7
num_derivatives=13
num_iterations=116
num_multipliers=7
num_parameters=0
num_slacks=7
num_states=26
objective=5.260348
objective_accelerations=0.785384
objective_balance=0.022760
objective_effort=0.247094
objective_height=4.128341
objective_ligament=0.076769
solver_duration=1292.705727
status=Solve_Succeeded
success=true
DataType=double
version=3
OpenSimVersion=4.4-2022-07-23-0e9fedc
endheader
time	/jointset/ground_pelvis/pelvis_tilt/value	/jointset/ground_pelvis/pelvis_tx/value	/jointset/ground_pelvis/pelvis_ty/value	/jointset/hip_l/hip_flexion_l/value	/jointset/hip_l/hip_adduction_l/value	/jointset/hip_l/hip_rotation_l/value	/jointset/back/lumbar_extension/value	/jointset/patellofemoral_l/patellar_flexion_l/value	/jointset/knee_l/knee_flexion_l/value	/jointset/knee_l/knee_adduction_l/value	/jointset/knee_l/knee_rotation_l/value	/jointset/ankle_l/ankle_angle_l/value	/jointset/subtalar_l/subtalar_angle_l/value	/jointset/ground_pelvis/pelvis_tilt/speed	/jointset/ground_pelvis/pelvis_tx/speed	/jointset/ground_pelvis/pelvis_ty/speed	/jointset/hip_l/hip_flexion_l/speed	/jointset/hip_l/hip_adduction_l/speed	/jointset/hip_l/hip_rotation_l/speed	/jointset/back/lumbar_extension/speed	/jointset/patellofemoral_l/patellar_flexion_l/speed	/jointset/knee_l/knee_flexion_l/speed	/jointset/knee_l/knee_adduction_l/speed	/jointset/knee_l/knee_rotation_l/speed	/jointset/ankle_l/ankle_angle_l/speed	/jointset/subtalar_l/subtalar_angle_l/speed	/forceset/tau_hip_flexion_l	/forceset/tau_hip_adduction_l	/forceset/tau_hip_rotation_l	/forceset/tau_knee_flexion_l	/forceset/tau_ankle_angle_l	/forceset/tau_subtalar_angle_l	/forceset/tau_lumbar_extension	lambda_cid13_p0	lambda_cid13_p1	lambda_cid13_p2	lambda_cid13_p3	lambda_cid13_p4	lambda_cid13_p5	lambda_cid14_p0	/jointset/ground_pelvis/pelvis_tilt/accel	/jointset/ground_pelvis/pelvis_tx/accel	/jointset/ground_pelvis/pelvis_ty/accel	/jointset/hip_l/hip_flexion_l/accel	/jointset/hip_l/hip_adduction_l/accel	/jointset/hip_l/hip_rotation_l/accel	/jointset/back/lumbar_extension/accel	/jointset/patellofemoral_l/patellar_flexion_l/accel	/jointset/knee_l/knee_flexion_l/accel	/jointset/knee_l/knee_adduction_l/accel	/jointset/knee_l/knee_rotation_l/accel	/jointset/ankle_l/ankle_angle_l/accel	/jointset/subtalar_l/subtalar_angle_l/accel	gamma_cid13_p0	gamma_cid13_p1	gamma_cid13_p2	gamma_cid13_p3	gamma_cid13_p4	gamma_cid13_p5	gamma_cid14_p0
1.5	-0.5921974833487417	-0.05301578913776586	0.7746463715984672	1.294502357015642	-0.3542584881631376	-0.09184991851491917	-0.3513894335328186	0.6234548836694129	0.623454883669444	-0.06753181291348537	-0.1740902239490484	0.01837970133059224	0.07281931398609794	1.148559712688259	0.51902926384946	0.5393838319772538	-3.042925404353659	-0.02622034129770971	-0.551205186425837	0.5895667814591075	-1.68761385110602	-1.687613851105999	-0.2511580596481397	0.01299114113223892	0.08002478250843308	0.003056590775141838	-0.216331457359668	0.015872607012843	0.00996417567511842	-0.06886416448056776	0.03817117568559865	0.008453859653265911	0.173971362107741	-11.58051837266869	-3.721558408796795	2.685554844504296	-8.341231054762753	-429.003461299833	-58.56579795890954	-18.20314234064164	0.9582325787787112	0.9783827745171925	-0.6703100308950432	-1.973084823793158	0.3281190506054621	-0.270874041652452	2.055808901160677	-0.7205527026167496	-0.7205527026167449	-0.2952091616980169	0.2857944500883593	0.2396382628147486	0.4088401852558307	7.674607510598926e-08	1.686811430318849e-06	-3.033029143268042e-07	3.253881202124266e-07	4.352406289039712e-07	-2.828458662936669e-07	3.546386491431632e-07
1.51	-0.5806645279461494	-0.04777706469120746	0.7800056137686601	1.263976490090125	-0.3545062938845297	-0.09737604286279125	-0.3453932908656862	0.6065444715918645	0.606544471592032	-0.07006139500511686	-0.1739484404781516	0.01919154108250024	0.07286815788462134	1.157834995091684	0.5286483439633746	0.5323446391458764	-3.06182356093217	-0.02332422758113584	-0.5539633540718958	0.6095786511929756	-1.694244148975203	-1.69424414897517	-0.2547124998476752	0.01538834759844168	0.08236045635845396	0.006734331891403799	-0.2088014810745212	0.0149461431897138	0.01049867471072978	-0.06744395536327716	0.0351674750979747	0.007515368184520419	0.1684446228874357	-12.36554190151064	-3.37229468203622	2.853494422252946	-7.674277629738389	-424.5789503949791	-58.3668390336436	-18.82956390566624	0.8827747408581258	0.9436300724990916	-0.7385800247882256	-1.784450824179076	0.2726988553590848	-0.2694496639750042	1.961410893324983	-0.6007011724919601	-0.6007011724900141	-0.3784196218300935	0.2197949333471046	0.2331746503263198	0.350449051906511	1.445400061597835e-07	1.651160994976116e-06	-9.103773738738606e-07	2.81134488162545e-07	6.044435452640503e-07	-2.907197877183405e-07	4.345851615286046e-07
1.52	-0.5690446999855819	-0.04244415755497519	0.7852908927874344	1.233274387648944	-0.3547246702041068	-0.1029279811947755	-0.3391995225244565	0.589574469967178	0.5895744699670689	-0.07262509313398896	-0.1737820627044575	0.02002726611375272	0.07295442078972668	1.165934224284455	0.5378658017842355	0.5245912016935508	-3.07817250748261	-0.02033446093748524	-0.5563679832336316	0.6290919162798495	-1.699531760581302	-1.699531760581257	-0.2579812669571664	0.01791000160304733	0.08480183837768442	0.01054039209146237	-0.2012715047896007	0.01401967936631198	0.01103317374338514	-0.06602374624592054	0.03216377451029721	0.006576876715513184	0.1629178836669533	-13.15272282152531	-3.024318215895631	3.023541909471073	-7.005331296230872	-420.1869338406186	-58.24618464228053	-19.43866118491076	0.7230219366478955	0.8980583159064643	-0.8131589550846323	-1.463242818179005	0.346849636021023	-0.2001663447877469	1.956087971762065	-0.45201544999997	-0.4520154499999492	-0.238074543689219	0.3106839577690348	0.2607798966566898	0.4345040020151573	1.735249149472592e-07	1.672657124305467e-06	-1.202454318207992e-06	2.668185222858611e-07	6.994117874848834e-07	-2.680023617037341e-07	4.756334695192089e-07
1.53	-0.5573496277580161	-0.03702127779777553	0.7904951210556705	1.202421562512216	-0.3549127546655572	-0.1085022818255858	-0.3328134648542186	0.572558334228077	0.5725583342280777	-0.07522014145084019	-0.1735899516818072	0.02088775928511197	0.07307926014782075	1.172885541540831	0.5466216889938599	0.5161390993766729	-3.09194592048926	-0.01727861196349361	-0.5584096683988172	0.6480099715370503	-1.703463620312567	-1.703463620312577	-0.2610077964166928	0.02054419510467569	0.08729515620539702	0.01443090035991614	-0.1939649709426911	0.01355577956376202	0.01155454958245407	-0.0641965634270745	0.02858674904461185	0.005021137781857639	0.1574542689267277	-14.17107882997351	-2.395835824653172	3.180898568718595	-6.036575610888441	-415.8929402134224	-57.54113747376435	-20.02712113949474	0.6520362779808564	0.8511435595846102	-0.8783939321501986	-1.26733609561912	0.2853426984602778	-0.1934129162093632	1.843217368050504	-0.3291012378421373	-0.3291012378503583	-0.331561813285197	0.2442901343124877	0.2434132254993439	0.366687936222414	1.612752375767718e-07	1.75487147859891e-06	-1.159846402628395e-06	2.843113267181994e-07	7.155056884327684e-07	-2.127816290348931e-07	4.753524353402991e-07
1.54	-0.5455908724263236	-0.03151348124126006	0.7956113966883069	1.171444414134659	-0.3550702026031774	-0.1140944479708844	-0.3262415160183456	0.5555098138911311	0.5555098138910936	-0.07784477899576797	-0.1733705981063594	0.0217731467346804	0.07324307732799214	1.17867084511116	0.5548491616474012	0.5070006745736254	-3.103037155644297	-0.01420715617456998	-0.5599410861170173	0.6662701494083068	-1.706008680169927	-1.706008680169994	-0.2638991125242663	0.02335851212439487	0.08978069401992628	0.01833595650683771	-0.1866584370960339	0.01309187976092852	0.01207592542024784	-0.0623693806082346	0.02500972357885289	0.003465398847903612	0.1519906541863123	-15.19268026029147	-1.767360884862741	3.338914981757106	-5.058048644261229	-411.6444125165048	-56.91269425844674	-20.59165537478759	0.4898191994384862	0.7923754046899233	-0.9504234523185346	-0.9268072478564262	0.3499709990075583	-0.09811285539057528	1.824512494573447	-0.1746554752191677	-0.1746554752191671	-0.2110318732986686	0.3467086613872998	0.2592238940200754	0.4374135777087344	1.475187856516807e-07	1.884067260603715e-06	-1.090465887267866e-06	3.074932681460903e-07	7.298647380084949e-07	-1.602903140039471e-07	4.783848482712339e-07
1.55	-0.5337801055730018	-0.0259261123824871	0.8006329628164901	1.140369730839644	-0.3551968355431959	-0.1197001100134684	-0.3194905389069992	0.538442799458109	0.5384427994581643	-0.08049728031340767	-0.173122787466962	0.02268338325629027	0.07344605859201081	1.18327788474846	0.5625287103553197	0.4972064896000221	-3.111435340941125	-0.01111674820159751	-0.5611054712540555	0.6837947861085482	-1.707152429027032	-1.707152429027073	-0.2665721512136001	0.0262342770655861	0.09226941892734196	0.02226399125432256	-0.1793111890667506	0.01191574197294422	0.0125574333800206	-0.06088836872503636	0.0218727545596102	0.002116072426494562	0.1464711108356697	-16.0731848189742	-1.234509532703875	3.490785340009176	-4.195717398068265	-407.6294038797159	-56.57231620141484	-21.12889105151496	0.4154978215737912	0.7414303913708662	-1.009675420914224	-0.726639415600645	0.2887102754443483	-0.1123382434469422	1.696866244790645	-0.04806579076899014	-0.04806579076495009	-0.2907268476086521	0.2623391045871146	0.2441794048147008	0.3708211988351833	1.320262673919374e-07	2.067393818015087e-06	-9.902386808553946e-07	3.372300848079872e-07	7.422249370902129e-07	-1.109437627731843e-07	4.852349285243805e-07
1.56	-0.5219293980281757	-0.02026481087912859	0.8055534352147319	1.109225002642638	-0.3552925374876666	-0.1253147632876132	-0.3125682300312493	0.5213715812967231	0.5213715812966027	-0.08317556941453215	-0.1728453534390257	0.02361860355011468	0.07368838475861821	1.186658983413698	0.5696356905645126	0.4867819285853756	-3.11704613603808	-0.00802095706847738	-0.5617393324145471	0.7005365022904316	-1.706849425876648	-1.706849425876664	-0.2690566691372654	0.02928318977083388	0.09477744846323531	0.02620493702446962	-0.1719639410377394	0.0107396041846411	0.01303894133775748	-0.05940735684181484	0.0187357855402834	0.0007667460047569293	0.1409515674848355	-16.95766554756144	-0.7007940978890725	3.642327219922114	-3.316361941997248	-403.6669975425478	-56.30657218510158	-21.63560075809391	0.2446310050265017	0.6778617049448518	-1.076498660527157	-0.3693292078818638	0.351047631037272	0.007991939918755023	1.667928390902093	0.1146949262785574	0.1146949262785562	-0.1733277201649849	0.3813382141986963	0.2630848197156845	0.4399957822412001	1.205250875948699e-07	2.217599759647017e-06	-9.147655080774605e-07	3.53774755453932e-07	7.65484646898029e-07	-5.710827293574208e-08	4.890400139533609e-07
1.57	-0.5100510332464344	-0.01453544855464969	0.8103666263239938	1.078038115210298	-0.355357205961162	-0.1309336073197886	-0.3054826722557158	0.504310481284439	0.504310481284417	-0.08587750842432436	-0.1725369114017215	0.02457882956720796	0.07397019051990562	1.188804878804272	0.57612604850407	0.4757595698503024	-3.119844323791578	-0.004913725896304008	-0.5619484877624504	0.71642150957163	-1.705118218409346	-1.70511821840934	-0.2712943001589218	0.0324234925018942	0.09726308853909216	0.03015419012038194	-0.1647803832050045	0.009748504826083868	0.01347358598946773	-0.05790356631123858	0.01562217317153926	-0.001040892663149826	0.135498650191777	-17.87915699919874	0.03279167209680257	3.768462571750092	-2.351163017045582	-399.9896442466184	-55.67431874701136	-22.11151112180234	0.1682450201030337	0.6180847366701594	-1.129448271436627	-0.1619552332072893	0.2900971046290646	-0.02284113506330954	1.5257554099097	0.2400895731756441	0.2400895731791659	-0.2430549657592001	0.2828580312492867	0.2406703274648523	0.3718096700995961	1.140130808761469e-07	2.326404931554646e-06	-8.702348773426971e-07	3.538292435799368e-07	8.023687451134674e-07	2.338390160049353e-09	4.890388558521332e-07
1.58	-0.498157474267988	-0.008744490271132504	0.815066725087618	1.046837867565569	-0.3553908948740516	-0.1365520372781192	-0.2982428707047426	0.4872742445301731	0.4872742445301074	-0.08860063857890958	-0.1721965699912323	0.02556378533024613	0.07429137273151942	1.189697822756087	0.5819548823721683	0.4641634594578708	-3.119718178509946	-0.001825044951176291	-0.5616565176271	0.7313852573800612	-1.70187677429326	-1.701876774293231	-0.273294898084337	0.03566306438051888	0.09972339765269668	0.03408022708961492	-0.1575968253727209	0.008757405467077747	0.01390823064013903	-0.05639977578075749	0.01250856080264981	-0.002848531331547896	0.1300457328984186	-18.80333345607548	0.7680265969420375	3.892989384014007	-1.37552204285395	-396.344809850134	-55.10799860944076	-22.55708534358373	-0.005959282725259816	0.5455568906530798	-1.191248991998834	0.2155373991439339	0.347337585628279	0.1082170365694442	1.483676496348899	0.4167422560353563	0.4167422560353802	-0.1259211009167347	0.4011920437116444	0.2580186272652805	0.4353525569053594	1.048219003922873e-07	2.441600370054053e-06	-8.147526929242291e-07	3.573516475629948e-07	8.297901361823027e-07	6.078962948728758e-08	4.882317793333475e-07
1.59	-0.4862612894902179	-0.002898662330164195	0.8196481308086968	1.015653500805856	-0.355393727061464	-0.1421655876382556	-0.2908582091102122	0.4702778481555699	0.4702778481555679	-0.09134232620699513	-0.1718237400377675	0.02657309548848215	0.07465173346542074	1.189326137942431	0.5870889267218756	0.4520333620698241	-3.116654421094891	0.001250606092140063	-0.5609724861089661	0.7453759405726019	-1.697145519901213	-1.697145519901197	-0.2750088821300443	0.03891178741460538	0.1021273400453495	0.03798085118646228	-0.1506009723653581	0.00729435686885519	0.01428896562636892	-0.05500807121568137	0.009436071322979866	-0.00448438498148852	0.1247031567590986	-19.72916032004499	1.435928924483474	4.020271536107175	-0.3808409778136587	-393.1212215780169	-54.75620154862207	-22.97183735106734	-0.08469006073075754	0.4791354392860699	-1.236367903792307	0.4269541593985791	0.2861062125465997	0.06102314111875318	1.331096087494929	0.5397670988119626	0.5397670988102429	-0.1886279198626365	0.2878017116651272	0.2299603146462068	0.3654244662423729	9.199469837002832e-08	2.565468313213732e-06	-7.444076856493055e-07	3.655805087806249e-07	8.443692818378913e-07	1.178899365572037e-07	4.863309563907332e-07
